<?xml version="1.0" standalone="no"?>
<!DOCTYPE svg PUBLIC "-//W3C//DTD SVG 20010904//EN"
 "http://www.w3.org/TR/2001/REC-SVG-20010904/DTD/svg10.dtd">
<svg version="1.0" xmlns="http://www.w3.org/2000/svg"
 width="300.000000pt" height="300.000000pt" viewBox="0 0 300.000000 300.000000"
 preserveAspectRatio="xMidYMid meet">
<metadata>
Created by potrace 1.14, written by Peter Selinger 2001-2017
</metadata>
<g transform="translate(0.000000,300.000000) scale(0.100000,-0.100000)"
fill="#000000" stroke="none">
<path d="M730 2473 c-221 -55 -421 -243 -554 -518 -123 -252 -171 -469 -170
-765 1 -157 7 -207 40 -310 56 -178 164 -295 320 -351 74 -26 225 -34 304 -15
226 52 401 261 748 891 6 11 27 48 47 82 l36 63 173 -288 c223 -371 289 -466
403 -584 107 -111 213 -163 353 -174 263 -21 452 119 531 394 42 146 46 429 8
627 -23 123 -28 143 -65 254 -106 317 -297 559 -525 664 -116 53 -289 59 -404
12 -131 -53 -268 -166 -382 -317 l-51 -67 -38 47 c-68 83 -199 207 -273 256
-157 104 -339 140 -501 99z m1558 -281 c160 -78 299 -294 371 -580 36 -138 49
-259 47 -427 -2 -138 -5 -168 -24 -216 -22 -55 -65 -105 -112 -129 -33 -18
-127 -16 -171 2 -57 25 -135 113 -244 278 -91 137 -265 417 -265 426 0 2 -45
76 -101 164 l-100 160 53 77 c108 157 237 263 342 282 57 10 139 -5 204 -37z
m-1328 -44 c94 -28 198 -115 311 -261 63 -82 82 -120 61 -129 -4 -1 -93 -136
-197 -298 -104 -162 -204 -317 -223 -345 -154 -222 -254 -300 -368 -289 -143
14 -217 137 -217 364 0 52 12 207 18 230 1 3 5 25 9 50 10 58 54 216 71 255 7
17 26 57 40 90 35 79 103 180 157 233 103 104 215 137 338 100z"/>
</g>
</svg>
